<svg xmlns="http://www.w3.org/2000/svg" viewBox="0 0 1440 220"><path fill="#0099ff" fill-opacity="1" d="M0,128L24,133.3C48,139,96,149,144,144C192,139,240,117,288,101.3C336,85,384,75,432,96C480,117,528,171,576,176C624,181,672,139,720,133.3C768,128,816,160,864,176C912,192,960,192,1008,165.3C1056,139,1104,85,1152,90.7C1200,96,1248,160,1296,176C1344,192,1392,160,1416,144L1440,128L1440,320L1416,320C1392,320,1344,320,1296,320C1248,320,1200,320,1152,320C1104,320,1056,320,1008,320C960,320,912,320,864,320C816,320,768,320,720,320C672,320,624,320,576,320C528,320,480,320,432,320C384,320,336,320,288,320C240,320,192,320,144,320C96,320,48,320,24,320L0,320Z"></path></svg>